<svg version="1.1" xmlns="http://www.w3.org/2000/svg" xmlns:xlink="http://www.w3.org/1999/xlink" x="0px" y="0px"
   width="77.041px" height="77.039px" viewBox="0 0 77.041 77.039" enable-background="new 0 0 77.041 77.039" xml:space="preserve">
<g id="Layer_1" display="none">
</g>
<g id="Layer_2" display="none">
</g>
<g id="totals">
</g>
<g id="order_summary_info">
</g>
<g id="Layer_2_copy">
</g>
<g id="GB_info">
  <g>
    <path fill-rule="evenodd" clip-rule="evenodd" fill="#ed4253" d="M38.52,0.552c20.971,0,37.969,16.998,37.969,37.967
      c0,20.97-16.998,37.969-37.969,37.969c-20.969,0-37.967-16.999-37.967-37.969C0.553,17.55,17.551,0.552,38.52,0.552z"/>
    <path fill-rule="evenodd" clip-rule="evenodd" fill="#FFFFFF" d="M38.52,2.089c20.121,0,36.432,16.311,36.432,36.43
      c0,20.121-16.311,36.432-36.432,36.432C18.4,74.95,2.09,58.64,2.09,38.519C2.09,18.399,18.4,2.089,38.52,2.089z"/>
    <path fill-rule="evenodd" clip-rule="evenodd" fill="#ed4253" d="M38.52,4.033c19.047,0,34.486,15.44,34.486,34.485
      c0,19.047-15.439,34.486-34.486,34.486S4.035,57.565,4.035,38.519C4.035,19.474,19.473,4.033,38.52,4.033z"/>
    <g>
      <g>
        <path fill="#FFFFFF" d="M52.631,30.769c-2.877,0-5.668,1.203-6.955,3.48v-8.55c0-1.977-3.133-1.977-3.133,0v25.95
          c0,0.945,0.6,1.504,1.586,1.504c0.988,0,1.463-0.559,1.463-1.504v-2.02c1.459,2.664,4.463,3.781,7.039,3.781
          c1.33,0,2.791-0.258,4.121-0.816l-0.041,0.043c4.678-1.933,7.039-6.188,6.908-11.17C63.447,35.366,59.07,30.769,52.631,30.769z
           M57.311,48.813c-1.246,0.988-2.791,1.505-4.422,1.633c-3.908,0-7.213-2.491-7.213-6.702v-3.394c0-3.781,2.92-6.445,6.826-6.617
          c3.049,0,6.096,1.633,7.342,4.598c0.342,0.902,0.602,2.062,0.643,3.179C60.529,44.303,59.629,46.881,57.311,48.813z
           M36.959,37.944h-9.102c-1.803,0-2.018,2.836,0,2.836h7.729v5.715c-1.889,2.533-5.193,3.908-8.373,3.865
          c-5.537-0.128-10.432-5.198-10.516-11.256c0-5.629,4.121-9.797,8.842-10.913c3.221-0.817,7.213,0.172,9.617,2.964
          c1.33,1.547,3.52-0.516,2.232-2.02c-2.361-2.749-6.354-4.038-10.088-4.038c-0.773,0-1.59,0.043-2.232,0.129
          c-6.568,1.246-11.463,7.218-11.463,13.749c-0.174,8.119,6.182,14.264,13.566,14.307c4.164,0.043,8.414-1.805,10.947-5.156
          c0.385-0.387,0.473-0.945,0.473-1.417v-7.175C38.592,38.589,38.205,37.944,36.959,37.944z"/>
      </g>
    </g>
  </g>
</g>
<g id="no_print_zone" display="none">
</g>
<g id="Layer_8">
</g>
</svg>